<svg width="208" height="164" viewBox="0 0 208 164" fill="none" xmlns="http://www.w3.org/2000/svg">
<path d="M158.159 1.12493C126.8 -1.31084 96.6316 1.77992 67.3711 15.9226C34.7579 31.6891 12.8542 69.0846 3.89547 102.913C0.565931 115.479 -1.14381 128.979 2.87981 141.336C12.1858 169.878 40.4351 165.751 62.4152 154.821C74.8071 148.665 85.223 139.437 95.5179 130.303C112.608 115.132 134.463 104.055 148.486 85.6247C153.187 79.4273 156.161 72.7009 162.162 67.4982C171.496 59.4011 183.09 53.6459 192.841 45.9389C201.161 39.3384 209.884 29.8156 207.141 19.5687C204.315 9.06335 191.542 5.31878 180.776 3.72866C173.151 2.58381 165.626 1.69354 158.159 1.12493Z" fill="url(#paint0_linear_1_1151)"/>
<defs>
<linearGradient id="paint0_linear_1_1151" x1="143.071" y1="-2.2032" x2="33.4546" y2="106.246" gradientUnits="userSpaceOnUse">
<stop stop-color="#FFD3D2"/>
<stop offset="1" stop-color="#FFFAFA"/>
</linearGradient>
</defs>
</svg>
