<svg width="158" height="99" viewBox="0 0 158 99" fill="none" xmlns="http://www.w3.org/2000/svg">
<path d="M101.78 88.5064C115.117 95.3191 164.374 110.448 156.79 79.1359C154.89 71.3382 149.346 64.7654 143.033 60.3836C135.804 55.3493 128.68 53.6082 122.36 47.1756C114.66 39.4275 106.386 32.4254 97.645 26.2601C79.6963 13.3615 59.8278 2.33047 38.8883 0.678835C24.2028 -0.473848 1.84368 6.84962 0.115422 25.7384C-2.40804 53.2372 38.4726 47.1141 53.022 52.9593C66.8237 58.4837 77.3216 71.5447 89.59 80.8652C93.4646 83.8024 97.5454 86.3604 101.78 88.5064Z" fill="url(#paint0_linear_1_1150)"/>
<defs>
<linearGradient id="paint0_linear_1_1150" x1="157.736" y1="78.2955" x2="-18.8229" y2="53.4197" gradientUnits="userSpaceOnUse">
<stop stop-color="#FFE1E2"/>
<stop offset="1" stop-color="#FFF8F8"/>
</linearGradient>
</defs>
</svg>
