<svg width="1171" height="873" viewBox="0 0 1171 873" fill="none" xmlns="http://www.w3.org/2000/svg">
<path d="M541.104 722.831C505.933 743.162 469.065 756.386 427.087 756.213C380.298 756.016 333.915 724.621 304.603 690.165C293.712 677.367 284.188 662.576 281.98 645.922C276.894 607.444 312.105 596.499 343.809 596.987C361.679 597.253 378.962 602.206 396.052 607.116C424.425 615.277 456.066 616.005 482.685 629.678C491.62 634.283 498.837 640.469 508.731 643.19C524.123 647.426 540.84 647.672 556.499 651.221C569.875 654.278 585.35 660.518 587.872 673.999C590.443 687.827 577.653 699.319 565.999 707.178C557.754 712.767 549.485 718.002 541.104 722.831Z" fill="url(#paint0_linear_1_1152)"/>
<path d="M292.8 267.685C333.798 157.432 457.155 86.9832 573.386 96.1937C629.435 100.644 681.635 125.711 730.793 152.964C774.122 176.984 817.026 203.829 851.439 239.921C874.934 264.556 895.142 296.035 911.325 326.079C935.538 371.07 939.394 435.736 876.184 446.41C861.354 448.916 847.466 446.764 832.717 445.517C820.784 444.501 810.529 449.375 798.64 450.363C768.718 452.857 738.371 449.048 709.089 443.054C649.407 430.812 592.113 408.355 531.679 399.621C482.158 392.487 431.73 394.892 383.114 406.708C362.604 411.695 341.399 418.41 320.815 413.734C270.076 402.19 275.467 336.231 283.946 297.793C286.181 287.56 289.14 277.499 292.8 267.685Z" fill="url(#paint1_linear_1_1152)"/>
<path d="M792.509 161.679C804.569 168.201 849.33 183.109 843.062 154.285C841.491 147.107 836.558 140.971 830.873 136.825C824.365 132.061 817.882 130.314 812.235 124.29C805.354 117.033 797.931 110.445 790.063 104.614C773.912 92.4214 755.963 81.8969 736.832 79.9345C723.415 78.5634 702.791 84.7857 700.803 102.038C697.901 127.154 735.452 122.429 748.644 128.092C761.158 133.446 770.486 145.627 781.515 154.422C784.998 157.194 788.679 159.623 792.509 161.679Z" fill="url(#paint2_linear_1_1152)"/>
<path d="M588.693 174.827C614.29 182.519 635.899 198.124 660.184 209.006C700.615 227.12 748.483 221.127 791.926 229.97C836.226 238.999 873.347 260.801 897.191 299.487C927.983 349.418 945.44 413.489 944.213 472.875C942.855 538.246 914.357 588.428 864.751 629.388C815.174 670.325 755.988 698.257 694.502 716.089C688.57 717.814 682.619 719.419 676.619 720.929C541.845 754.768 350.563 751.261 269.103 617.528C268.357 616.306 267.629 615.08 266.895 613.836C258.204 598.843 251.339 582.863 246.447 566.237C228.958 507.334 223.276 438.982 230.489 377.981C235.331 336.916 260.321 304.898 286.665 274.42C323.678 231.601 373.853 202.877 427.337 185.728C466.943 173.031 512.012 160.897 553.895 166.978C565.674 168.721 577.306 171.345 588.693 174.827Z" fill="url(#paint3_linear_1_1152)"/>
<path d="M902.258 591.851C878.601 624.876 850.466 652.125 812.152 669.277C769.445 688.392 714.243 678.916 673.331 659.613C658.132 652.445 643.356 642.897 634.477 628.635C613.977 595.678 641.541 571.188 670.626 558.559C687.016 551.433 704.803 548.818 722.397 546.245C751.612 541.979 780.737 529.595 810.625 531.075C820.665 531.586 829.79 534.246 839.926 532.645C855.695 530.157 871.026 523.488 886.756 520.264C900.202 517.533 916.873 516.838 924.73 528.078C932.774 539.616 925.86 555.36 918.484 567.325C913.278 575.816 907.903 583.996 902.258 591.851Z" fill="url(#paint4_linear_1_1152)"/>
<path d="M506.432 412.303C506.091 412.303 505.748 412.194 505.455 411.968C505.188 411.758 498.859 406.76 494.026 396.563C489.594 387.211 485.658 371.535 492.066 349.921C496.412 335.26 500.768 324.837 504.609 315.635C511.583 298.941 516.623 286.879 517.03 261.307C517.043 260.432 517.689 259.681 518.643 259.742C519.525 259.757 520.225 260.477 520.212 261.358C519.795 287.54 514.389 300.481 507.545 316.863C503.734 325.988 499.416 336.329 495.117 350.828C483.431 390.231 507.17 409.27 507.412 409.455C508.102 409.996 508.226 410.995 507.689 411.688C507.374 412.093 506.906 412.303 506.432 412.303Z" fill="#000C3E"/>
<path d="M636.799 161.036C636.561 178.37 622.316 192.233 604.979 191.994C587.645 191.756 573.785 177.511 574.021 160.174C574.259 142.84 588.507 128.98 605.841 129.216C623.175 129.454 637.038 143.702 636.799 161.036Z" fill="#000C3E"/>
<path d="M503.394 401.089C503.394 401.089 513.051 419.859 550.808 425.646C588.563 431.431 617.749 417.125 647.024 426.963C676.299 436.804 717.907 422.092 725.928 409.699C733.952 397.306 729.001 262.283 705.577 240.18C682.153 218.076 561.792 202.021 536.433 229.139C511.075 256.26 486.55 386.269 503.394 401.089Z" fill="#000C3E"/>
<path d="M717.938 289.381C717.155 346.509 670.209 392.186 613.078 391.403C555.95 390.62 510.273 343.671 511.055 286.543C511.841 229.415 558.788 183.738 615.916 184.52C673.044 185.306 718.721 232.253 717.938 289.381Z" fill="#000C3E"/>
<path d="M529.966 286.087C529.966 286.087 537.198 411.521 622.201 414.925C707.201 418.33 702.915 241.46 671.801 225.364C640.687 209.271 512.587 215.472 529.966 286.087Z" fill="#FFCEB0"/>
<path d="M617.744 310.892C617.744 310.892 634.871 349.146 630.761 351.806C626.65 354.462 614.432 354.297 611.075 351.535C607.719 348.773 611.012 306.727 617.744 310.892Z" fill="#F5A473"/>
<path d="M592.633 324.427C592.522 328.83 588.863 332.311 584.46 332.2C580.056 332.092 576.575 328.433 576.687 324.029C576.795 319.626 580.454 316.145 584.86 316.253C589.264 316.364 592.745 320.023 592.633 324.427Z" fill="#41294A"/>
<path d="M661.01 319.046C660.899 323.449 657.24 326.93 652.836 326.819C648.433 326.71 644.952 323.051 645.064 318.648C645.172 314.244 648.831 310.764 653.237 310.872C657.641 310.983 661.122 314.642 661.01 319.046Z" fill="#41294A"/>
<path d="M595.202 217.554C595.202 217.554 565.118 232.995 559.986 260.759C554.851 288.523 559.525 359.192 527.205 356.714C527.205 356.714 461.451 218.197 595.202 217.554Z" fill="#41294A"/>
<path d="M611.256 217.774C608.542 219.817 642.679 218.923 662.759 242.121C682.842 265.319 688.881 324.343 691.926 325.368C694.971 326.396 705.257 251.736 683.329 229.9C661.4 208.067 626.7 206.151 611.256 217.774Z" fill="#41294A"/>
<path d="M684.725 330.584C684.725 330.584 692.103 298.964 706.542 309.814C720.98 320.664 708.938 353.808 694.998 357.12C681.062 360.432 677.372 346.967 684.725 330.584Z" fill="#FFCEB0"/>
<path d="M550.746 328.747C550.746 328.747 544.236 296.936 529.505 307.385C514.777 317.834 525.906 351.299 539.747 354.993C553.591 358.684 557.647 345.327 550.746 328.747Z" fill="#FFCEB0"/>
<path d="M649.183 290.911C649.183 290.911 664.195 282.992 673.444 294.37C681.58 304.373 663.011 296.266 656.177 297.561C649.339 298.859 640.31 298.293 649.183 290.911Z" fill="#41294A"/>
<path d="M589.527 293.794C589.527 293.794 574.13 286.651 565.473 298.484C557.859 308.891 575.989 299.845 582.883 300.794C589.775 301.739 598.767 300.711 589.527 293.794Z" fill="#41294A"/>
<path d="M643.732 375.18C643.732 375.18 633.939 360.382 623.344 361.314C612.745 362.25 604.622 375.89 603.197 376.463C603.197 376.463 619.736 384.229 643.732 375.18Z" fill="#41294A"/>
<path d="M584.172 306.668C570.914 306.668 559.979 317.46 559.794 330.722C559.708 337.232 562.158 343.392 566.702 348.062C571.245 352.73 577.332 355.349 583.845 355.438L584.185 355.441C597.443 355.441 608.379 344.652 608.56 331.39C608.745 317.947 597.959 306.859 584.513 306.671L584.172 306.668ZM584.185 358.623L583.8 358.619C576.438 358.521 569.556 355.555 564.42 350.28C559.285 345.002 556.514 338.04 556.612 330.677C556.819 315.685 569.183 303.486 584.172 303.486L584.557 303.489C599.757 303.699 611.949 316.235 611.742 331.431C611.539 346.424 599.174 358.623 584.185 358.623Z" fill="#FFFCF6"/>
<path d="M653.038 301.156C639.777 301.156 628.841 311.949 628.66 325.21C628.475 338.65 639.264 349.741 652.707 349.926L653.048 349.929C666.309 349.929 677.245 339.14 677.426 325.878C677.515 319.365 675.062 313.205 670.522 308.535C665.978 303.87 659.891 301.249 653.378 301.159L653.038 301.156ZM653.048 353.111L652.666 353.108C637.463 352.898 625.271 340.362 625.478 325.166C625.685 310.173 638.046 297.975 653.038 297.975L653.423 297.978C660.786 298.076 667.668 301.042 672.8 306.317C677.938 311.596 680.71 318.557 680.608 325.92C680.401 340.912 668.037 353.111 653.048 353.111Z" fill="#FFFCF6"/>
<path d="M558.887 326.728C558.705 326.728 558.517 326.696 558.339 326.632L548.135 322.884C547.311 322.579 546.888 321.665 547.191 320.838C547.493 320.017 548.412 319.601 549.233 319.896L559.434 323.641C560.261 323.947 560.681 324.86 560.379 325.687C560.143 326.33 559.536 326.728 558.887 326.728Z" fill="#FFFCF6"/>
<path d="M677.873 319.497C677.196 319.497 676.566 319.061 676.356 318.38C676.092 317.544 676.559 316.649 677.399 316.385L691.345 312.033C692.178 311.766 693.076 312.24 693.337 313.076C693.601 313.916 693.133 314.807 692.293 315.071L678.347 319.427C678.192 319.475 678.029 319.497 677.873 319.497Z" fill="#FFFCF6"/>
<path d="M610.759 246.943C610.759 246.943 610.788 278.674 629.69 284.404C648.59 290.138 697.21 287.608 696.717 279.854C692.265 209.847 659.357 213.369 631.873 204.409C583.673 188.701 544.251 267.401 550.153 286.001C556.055 304.599 596.737 287.233 605.445 284.617C614.151 281.999 609.327 260.436 610.759 246.943Z" fill="#000C3E"/>
<g opacity="0.210007">
<g opacity="0.210007">
<path opacity="0.210007" d="M562.015 354.112C562.015 354.112 604.895 329.371 623.715 332.83C642.535 336.291 675.565 336.832 677.06 343.584C678.559 350.332 635.185 347.291 621.844 348.589C608.503 349.887 557.287 365.245 562.015 354.112Z" fill="#DB5C5D"/>
</g>
</g>
<path d="M586.013 337.556C585.386 337.556 584.791 337.184 584.539 336.564C584.209 335.752 584.6 334.823 585.414 334.492C589.726 332.736 590.524 331.352 590.531 331.339C590.814 330.506 591.686 330.118 592.526 330.413C593.356 330.697 593.773 331.664 593.49 332.497C593.289 333.083 592.204 335.164 586.611 337.439C586.413 337.518 586.213 337.556 586.013 337.556Z" fill="#DB5C5D"/>
<path d="M651.524 334.188C650.242 334.188 648.078 333.8 644.68 332.142C643.888 331.761 643.56 330.809 643.945 330.017C644.327 329.228 645.284 328.903 646.07 329.285C650.261 331.325 651.82 330.984 651.839 330.984C652.65 330.644 653.516 331.042 653.859 331.85C654.203 332.658 653.764 333.612 652.952 333.959C652.742 334.048 652.291 334.188 651.524 334.188Z" fill="#DB5C5D"/>
<path d="M610.128 331.541C609.323 331.541 608.629 330.934 608.546 330.113C608.457 329.238 609.094 328.455 609.969 328.369L627.042 326.626C627.898 326.517 628.696 327.17 628.785 328.045C628.875 328.92 628.238 329.702 627.363 329.788L610.29 331.532C610.236 331.538 610.182 331.541 610.128 331.541Z" fill="#FFFCF6"/>
<path d="M586.487 191.566C586.255 191.566 586.016 191.515 585.794 191.404C576.767 187.016 571.307 180.758 569.557 172.8C565.676 155.132 581.46 135.584 582.135 134.759C582.695 134.079 583.694 133.98 584.371 134.537C585.052 135.094 585.154 136.093 584.597 136.773C584.441 136.964 569.112 155.969 572.666 172.126C574.196 179.081 579.08 184.604 587.184 188.547C587.973 188.928 588.304 189.883 587.919 190.672C587.645 191.235 587.079 191.566 586.487 191.566Z" fill="#000C3E"/>
<path d="M622.817 196.295C622.375 196.295 621.936 196.11 621.621 195.754C621.041 195.092 621.105 194.09 621.767 193.507C621.951 193.345 640.196 177.121 639.343 160.599C638.977 153.488 635.067 147.235 627.72 142.014C627.004 141.508 626.835 140.516 627.345 139.797C627.854 139.084 628.846 138.915 629.562 139.424C637.742 145.234 642.105 152.307 642.521 160.446C643.444 178.509 624.665 195.197 623.864 195.9C623.561 196.164 623.189 196.295 622.817 196.295Z" fill="#000C3E"/>
<path d="M717.447 405.181C716.986 405.181 716.528 404.984 716.213 404.593C715.659 403.915 715.761 402.913 716.442 402.356C716.652 402.184 737.578 384.707 731.517 357.058C729.181 346.399 725.087 334.671 720.75 322.256C713.231 300.725 705.455 278.459 704.822 256.874C704.797 255.993 705.49 255.264 706.368 255.236C707.192 255.264 707.978 255.901 708.004 256.779C708.624 277.874 716.315 299.904 723.753 321.206C728.122 333.716 732.249 345.53 734.625 356.374C741.113 385.98 718.679 404.641 718.449 404.825C718.154 405.064 717.8 405.181 717.447 405.181Z" fill="#000C3E"/>
<path d="M723.098 291.552C723.047 291.552 722.993 291.549 722.939 291.546C722.067 291.46 721.428 290.68 721.513 289.805C724.262 261.968 718.405 239.375 704.109 222.642C681.09 195.709 643.691 193.236 643.319 193.214C642.441 193.163 641.77 192.412 641.824 191.531C641.871 190.656 642.626 189.962 643.501 190.039C643.892 190.061 682.639 192.619 706.527 220.574C721.408 237.991 727.517 261.389 724.679 290.117C724.6 290.941 723.906 291.552 723.098 291.552Z" fill="#000C3E"/>
<path d="M609.154 378.321C609.154 378.321 625.008 367.198 639.167 376.734C639.167 376.734 622.635 382.928 609.154 378.321Z" fill="#DB5C5D"/>
<path d="M619.644 389.741C618.079 389.741 616.733 389.725 615.903 389.713C615.025 389.7 614.325 388.978 614.337 388.096C614.35 387.218 614.951 386.505 615.954 386.531C621.961 386.61 629.139 386.464 630.256 386.041C631.073 385.729 631.996 386.136 632.311 386.954C632.626 387.775 632.225 388.688 631.407 389.006C629.816 389.623 623.911 389.741 619.644 389.741Z" fill="#DB5C5D"/>
<path d="M542.48 346.204C542.337 346.204 542.194 346.185 542.051 346.144C541.204 345.908 540.711 345.033 540.946 344.184C545.299 328.584 533.743 318.539 533.625 318.437C532.957 317.871 532.874 316.865 533.444 316.194C534.01 315.526 535.016 315.443 535.687 316.016C536.228 316.474 548.907 327.499 544.01 345.043C543.813 345.743 543.177 346.204 542.48 346.204Z" fill="#DB5C5D"/>
<path d="M690.92 350.004C690.885 350.004 690.853 350.004 690.815 350C689.94 349.943 689.275 349.186 689.329 348.311C690.519 329.847 699.367 319.978 699.746 319.567C700.338 318.918 701.343 318.874 701.989 319.465C702.638 320.057 702.683 321.063 702.094 321.712C702.008 321.807 693.618 331.235 692.508 348.515C692.45 349.358 691.75 350.004 690.92 350.004Z" fill="#DB5C5D"/>
<path d="M658.972 401.942C658.972 401.942 664.031 458.535 657.318 467.485C650.604 476.439 608.084 469.722 596.893 467.485C585.703 465.248 585.681 371.648 587.94 377.97C606.623 430.186 657.684 383.977 658.972 401.942Z" fill="#FFCEB0"/>
<path d="M591.986 407.539C591.986 407.539 622.152 422.039 656.445 404.488C656.445 404.488 659.111 425.57 656.445 430.432C653.782 435.294 599.46 438.768 588.766 414.806C588.766 414.806 588.9 406.499 591.986 407.539Z" fill="#F5A473"/>
<path d="M427.249 850.877H817.622C817.622 850.877 837.562 511.475 788.662 474.567C739.759 437.656 524.486 456.094 473.804 487.621C423.122 519.149 427.249 850.877 427.249 850.877Z" fill="#FB4C47"/>
<path d="M622.153 460.778C622.153 460.778 607.106 591.242 613.674 609.4C620.237 627.558 611.828 708.066 609.155 718.53C606.48 728.995 525.374 733.44 504.445 725.069C483.515 716.698 509.777 491.046 521.492 449.299C533.211 407.548 620.864 432.146 622.153 460.778Z" fill="#05BA6E"/>
<path d="M383.969 300.933C383.969 300.933 416.598 363.425 439.465 364.004C462.335 364.583 539.454 270.668 567.889 269.701C596.328 268.737 620.747 271.495 620.859 264.718C620.97 257.938 581.307 250.537 581.307 250.537C581.307 250.537 638.667 254.19 626.802 247.916C614.941 241.641 586.515 236 586.515 236C586.515 236 627.741 237.664 628.04 233.254C628.339 228.844 585.118 222.35 585.118 222.35C585.118 222.35 637.712 220.67 628.094 213.435C618.472 206.2 600.365 209.34 551.389 216.821C502.409 224.301 391.602 289.689 383.969 300.933Z" fill="#FFCEB0"/>
<path d="M441.214 297.939C441.214 297.939 493.41 329.031 470.683 364.266C446.483 401.785 447.838 390.639 443.654 405.819C439.467 420.999 508.441 450.564 511.578 463.558C514.715 476.549 482.201 636.332 451.745 629.775C425.235 624.07 277.915 540.467 256.743 456.921C240.332 392.15 374.102 233.722 441.214 297.939Z" fill="#FB4C47"/>
<path d="M577.845 662.399C577.845 662.399 520.011 789.802 541.274 806.862C562.538 823.92 579.672 812.806 598.476 823.878C617.283 834.951 635.323 829.415 650.43 819.78C665.537 810.143 626.22 683.392 609.958 671.324C593.697 659.252 580.776 655.778 577.845 662.399Z" fill="white"/>
<path d="M770.001 465.501C770.001 465.501 801.099 469.297 825.51 514.001C843.824 547.541 879.304 743.53 825.51 771.455C771.716 799.378 721.261 784.771 701.736 765.954C682.209 747.136 716.95 650.155 740.108 642.916C763.268 635.679 770.001 465.501 770.001 465.501Z" fill="#FB4C47"/>
<path d="M780.071 462.497C780.071 462.497 781.525 453.435 736.742 434.055C701.005 418.589 670.393 444.692 615.88 447.501C561.368 450.314 566.287 428.707 527.727 438.748C468.222 454.24 515.598 493.245 534.772 497.623C553.945 502.001 618.181 609.986 780.071 462.497Z" fill="#05BA6E"/>
<path d="M623.78 353.601C623.78 353.601 623.614 357.292 625.733 357.626C627.852 357.96 631.769 356.776 630.76 351.803C630.76 351.803 625.447 353.512 623.78 353.601Z" fill="white"/>
<path d="M844.514 659.319C844.365 659.319 844.212 659.309 844.059 659.287C842.589 659.077 841.501 657.894 841.345 656.484C838.695 653.42 820.899 647.003 809.028 642.72C785.509 634.234 774.961 630.038 772.693 625.446C770.768 621.555 771.63 615.942 772.721 608.838C774.449 597.593 776.603 583.594 769.463 570.11C757.134 546.822 758.308 512.282 758.365 510.824C758.435 509.068 759.953 507.662 761.665 507.767C763.421 507.834 764.789 509.313 764.726 511.066C764.71 511.41 763.564 545.372 775.089 567.131C783.212 582.48 780.784 598.271 779.012 609.802C778.162 615.322 777.364 620.537 778.398 622.627C780.326 625.602 798.898 632.303 811.185 636.735C838.879 646.726 848.494 650.744 847.658 656.589C847.432 658.177 846.07 659.319 844.514 659.319Z" fill="#B31B1F"/>
<path d="M761.5 633.159C761.223 633.159 760.943 633.124 760.66 633.048C750.148 630.181 733.816 627.197 733.654 627.165C731.923 626.853 730.777 625.195 731.092 623.468C731.407 621.737 733.059 620.572 734.793 620.906C735.47 621.027 751.554 623.967 762.334 626.907C764.03 627.372 765.029 629.118 764.567 630.814C764.182 632.23 762.9 633.159 761.5 633.159Z" fill="#B31B1F"/>
<path d="M818.653 790.54C818.602 790.54 818.555 790.54 818.507 790.537C759.613 787.868 700.935 762.78 697.763 738.917C696.767 731.417 696.048 727.666 695.603 725.811C694.413 725.219 693.691 723.953 693.904 722.569C694.308 719.947 696.083 719.018 697.493 719.018H697.528C700.732 719.053 701.795 720.93 704.073 738.08C706.535 756.604 759.957 781.514 818.793 784.18C820.55 784.26 821.908 785.746 821.829 787.502C821.752 789.21 820.343 790.54 818.653 790.54Z" fill="#B31B1F"/>
<path d="M713.077 734.227C712.845 734.227 712.609 734.201 712.371 734.15C710.659 733.762 709.583 732.057 709.972 730.342C710.108 729.728 724.025 668.384 737.032 624.256C737.529 622.57 739.31 621.603 740.984 622.105C742.67 622.602 743.634 624.371 743.135 626.057C730.185 669.987 716.316 731.134 716.179 731.748C715.842 733.224 714.531 734.227 713.077 734.227Z" fill="#B31B1F"/>
<path d="M437 600.995C436.844 600.995 436.682 600.982 436.523 600.96C434.786 600.699 433.59 599.077 433.85 597.342C434.178 595.147 442.034 543.301 452.814 519.04C463.294 495.463 468.659 471.559 468.713 471.32C469.088 469.605 470.784 468.533 472.508 468.902C474.223 469.284 475.305 470.986 474.923 472.701C474.704 473.7 469.365 497.468 458.63 521.627C448.2 545.098 440.22 597.756 440.141 598.284C439.905 599.866 438.547 600.995 437 600.995Z" fill="#B31B1F"/>
<path d="M388.497 419.978C380.027 419.978 370.536 419.462 360.088 418.132C358.344 417.91 357.109 416.319 357.332 414.575C357.552 412.832 359.184 411.619 360.889 411.82C392.707 415.873 415.31 412.141 426.961 409.599C421.158 407.744 413.028 405.937 404.915 406.379C386.658 407.238 359.944 390.929 358.815 390.229C357.319 389.306 356.858 387.346 357.781 385.851C358.703 384.355 360.667 383.887 362.159 384.816C362.42 384.976 388.351 400.817 404.587 400.022C420.054 399.207 438.371 406.096 440.035 409.052C440.63 410.105 440.582 411.473 439.904 412.475C439.274 413.401 437.97 413.958 436.825 413.888C436.322 413.945 434.833 414.302 433.385 414.645C426.427 416.312 411.091 419.975 388.497 419.978Z" fill="#B31B1F"/>
<path d="M466.708 351.595C465.525 351.595 464.389 350.933 463.841 349.8C463.762 349.638 455.817 333.5 442.288 327.105C426.93 319.841 409.561 294.524 408.829 293.452C407.84 291.997 408.215 290.015 409.666 289.029C411.123 288.043 413.099 288.421 414.085 289.866C414.257 290.114 431.213 314.823 445.012 321.349C460.602 328.727 469.212 346.287 469.572 347.029C470.335 348.613 469.67 350.51 468.089 351.273C467.644 351.493 467.173 351.595 466.708 351.595Z" fill="#B31B1F"/>
<path d="M614.497 536.502C614.379 536.502 614.258 536.489 614.141 536.46C613.285 536.266 612.747 535.41 612.944 534.558C613.021 534.22 620.609 501.048 622.83 484.197C626.289 457.925 614.522 448.762 614.405 448.673C613.702 448.145 613.555 447.152 614.077 446.449C614.599 445.743 615.585 445.593 616.292 446.112C616.842 446.516 629.709 456.319 625.983 484.611C623.746 501.614 616.123 534.933 616.047 535.264C615.878 536.005 615.222 536.502 614.497 536.502Z" fill="#08824F"/>
<path d="M520.663 488.658L517.503 488.292C517.503 488.292 519.972 466.812 521.261 456.252C522.562 445.599 525.601 438.326 525.731 438.02C526.072 437.206 527.007 436.837 527.815 437.171C528.623 437.514 529.002 438.45 528.662 439.258C528.63 439.328 525.661 446.455 524.42 456.64C523.132 467.19 520.663 488.654 520.663 488.658Z" fill="#08824F"/>
<path d="M611.008 841.386C592.863 841.386 582.885 840.788 569.076 839.961C551.312 838.895 526.988 837.438 470.143 836.553C468.387 836.528 466.984 835.083 467.012 833.324C467.041 831.567 468.587 830.104 470.242 830.19C527.227 831.074 551.634 832.541 569.455 833.61C583.155 834.428 593.05 835.023 611.008 835.023C633.487 835.023 653.653 832.56 673.157 830.18C690.278 828.087 706.447 826.114 723.778 825.729C760.747 824.914 788.374 825.726 788.647 825.729C790.404 825.786 791.785 827.253 791.73 829.006C791.676 830.762 790.194 832.064 788.456 832.092C788.183 832.083 760.712 831.268 723.921 832.092C706.905 832.468 690.885 834.425 673.927 836.496C654.235 838.901 633.875 841.386 611.008 841.386Z" fill="#B31B1F"/>
<path d="M755.143 798.933C753.562 798.933 751.977 798.224 750.597 796.136C746.298 789.642 745 789.108 736.689 790.387C729.171 791.561 726.202 786.232 724.236 782.709C723.58 781.532 722.957 780.422 722.413 779.992C720.949 778.837 717.293 780.224 715.747 781.077L714.204 778.296C714.878 777.921 720.873 774.723 724.385 777.495C725.426 778.319 726.161 779.636 727.014 781.157C728.913 784.552 730.879 788.048 736.202 787.243C745.716 785.773 748.258 786.846 753.25 794.38C754.574 796.384 755.719 796.111 759.248 794.052C761.927 792.48 765.99 790.11 769.019 794.342L766.435 796.194C765.255 794.555 764.186 794.851 760.851 796.798C759.257 797.73 757.202 798.933 755.143 798.933Z" fill="white"/>
<path d="M718.124 649.085C718.124 649.085 642.125 621.605 609.153 635.661C576.181 649.715 549.009 685.949 554.042 688.345C559.076 690.744 586.012 669.852 586.012 669.852C586.012 669.852 558.544 697.61 563.638 700.387C568.732 703.165 595.201 688.345 595.201 688.345C595.201 688.345 576.725 708.097 584.66 709.608C592.595 711.119 609.608 694.845 627.349 694.234C645.094 693.62 667.455 707.642 689.638 711.59C711.818 715.536 718.124 649.085 718.124 649.085Z" fill="#FFCEB0"/>
<path d="M832.818 634.84C832.621 634.84 832.423 634.821 832.223 634.783C832 634.745 809.62 630.513 782.865 625.073C781.143 624.723 780.03 623.043 780.38 621.321C780.727 619.6 782.403 618.486 784.131 618.84C810.842 624.268 833.184 628.49 833.407 628.534C835.134 628.859 836.267 630.523 835.939 632.251C835.653 633.778 834.317 634.84 832.818 634.84Z" fill="#B31B1F"/>
<path fill-rule="evenodd" clip-rule="evenodd" d="M620.41 134.77C619.579 134.77 618.676 134.867 617.697 135.06C615.312 135.539 613.767 136.698 612.839 138.709C608.702 147.662 617.424 168.987 623.656 181.585C627.507 167.61 632.122 144.248 625.601 136.887C624.345 135.471 622.636 134.77 620.41 134.77ZM623.839 192.049C623.939 192.068 624.04 192.082 624.142 192.091C624.474 192.218 624.828 192.284 625.186 192.284C625.517 192.284 625.849 192.23 626.172 192.112C630.422 190.563 667.844 176.528 672.505 160.356C673.626 156.467 672.837 152.633 670.225 149.274C665.782 143.554 660.982 142.874 657.735 143.306C648.524 144.535 639.457 156.435 632.808 167.74C635.16 154.863 636.066 139.993 629.922 133.057C627.755 130.608 623.673 127.984 616.568 129.399C612.398 130.23 609.294 132.616 607.598 136.29C601.32 149.887 615.762 179.17 620.575 188.244C614.506 189.416 608.402 189.68 602.563 189.283C589.984 188.428 578.834 184.517 572.177 180.237L569.798 183.938C577.164 188.674 589.052 192.775 602.265 193.673C609.194 194.144 616.543 193.737 623.839 192.049ZM659.327 148.971C659.054 148.971 658.777 148.988 658.5 149.03C648.744 150.328 636.957 171.018 630.725 184.108C643.68 178.653 664.228 168.234 666.957 158.76C667.571 156.627 667.159 154.741 665.668 152.818C663.661 150.235 661.582 148.971 659.327 148.971Z" fill="#FFD310"/>
<path d="M197.27 243.75H310.515C317.784 243.75 324.662 247.045 329.218 252.711L362.458 294.048C367.173 299.911 374.363 303.224 381.883 302.998L594.85 296.597" stroke="#FFB2B1" stroke-width="5" stroke-linejoin="round"/>
<path d="M209.361 244.266C209.361 249.302 205.279 253.384 200.243 253.384C195.207 253.384 191.124 249.302 191.124 244.266C191.124 239.23 195.207 235.148 200.243 235.148C205.279 235.148 209.361 239.23 209.361 244.266Z" fill="#FF383D"/>
<path d="M11.0007 244.367C11.0007 205.357 42.625 173.733 81.6348 173.733C120.645 173.733 152.266 205.357 152.266 244.367C152.266 283.376 120.645 315.001 81.6348 315.001C42.625 315.001 11.0007 283.376 11.0007 244.367Z" fill="#FFE1E2"/>
<path d="M81.3303 156.491C130.103 156.491 169.64 196.029 169.64 244.801C169.64 293.573 130.103 333.114 81.3303 333.114V376.725" stroke="#FFD6D7" stroke-width="2.4" stroke-miterlimit="10"/>
<path d="M74.0679 378.928C74.0679 374.917 77.3185 371.666 81.3301 371.666C85.3418 371.666 88.5924 374.917 88.5924 378.928C88.5924 382.94 85.3418 386.19 81.3301 386.19C77.3185 386.19 74.0679 382.94 74.0679 378.928Z" fill="#F2AEB0"/>
<path d="M53.158 242.249V245.998H58.572V248.232H53.158V254.001H50.5798V239.896H59.6033V242.249H53.158ZM64.3943 242.249V245.772H70.1843V248.017H64.3943V251.648H70.8396V254.001H61.8162V239.896H70.8396V242.249H64.3943ZM75.072 239.896L77.113 245.117C77.421 245.941 77.7898 246.972 78.2195 248.211C78.6563 249.442 78.9607 250.323 79.1326 250.853C79.3259 250.323 79.6375 249.435 80.0671 248.189C80.504 246.943 80.8764 245.912 81.1843 245.095L83.2039 239.896H85.9539L80.4753 254.001H77.822L72.2683 239.896H75.072ZM90.3259 242.249V245.772H96.116V248.017H90.3259V251.648H96.7712V254.001H87.7478V239.896H96.7712V242.249H90.3259ZM99.4998 239.896H105.096C106.815 239.896 108.119 240.279 109.007 241.046C109.902 241.805 110.349 242.89 110.349 244.301C110.349 245.282 110.12 246.12 109.662 246.814C109.211 247.502 108.573 247.999 107.75 248.307L110.435 254.001H107.556L105.182 248.748H102.078V254.001H99.4998V239.896ZM105.096 246.503C105.934 246.503 106.568 246.302 106.998 245.901C107.427 245.493 107.642 244.967 107.642 244.322C107.642 243.677 107.424 243.158 106.987 242.764C106.557 242.363 105.927 242.163 105.096 242.163H102.078V246.503H105.096Z" fill="#FF383D"/>
<path d="M650.77 358.046H819.584C828.398 358.046 836.503 362.878 840.695 370.631L871.944 428.42C876.136 436.173 884.241 441.004 893.055 441.004H975.84" stroke="#FFB2B1" stroke-width="5" stroke-linejoin="round"/>
<path d="M979.944 440.905C979.944 445.941 975.862 450.024 970.826 450.024C965.79 450.024 961.708 445.941 961.708 440.905C961.708 435.869 965.79 431.787 970.826 431.787C975.862 431.787 979.944 435.869 979.944 440.905Z" fill="#FF383D"/>
<path opacity="0.15" d="M1005.73 459.367C1005.73 420.357 1037.36 388.733 1076.37 388.733C1115.38 388.733 1147 420.357 1147 459.367C1147 498.376 1115.38 530.001 1076.37 530.001C1037.36 530.001 1005.73 498.376 1005.73 459.367Z" fill="#FF383D"/>
<path d="M1042.72 439.896H1048.32C1050.04 439.896 1051.34 440.279 1052.23 441.046C1053.12 441.805 1053.57 442.89 1053.57 444.301C1053.57 445.282 1053.34 446.12 1052.88 446.814C1052.43 447.502 1051.79 447.999 1050.97 448.307L1053.66 454.001H1050.78L1048.4 448.748H1045.3V454.001H1042.72V439.896ZM1048.32 446.503C1049.15 446.503 1049.79 446.302 1050.22 445.901C1050.65 445.493 1050.86 444.967 1050.86 444.322C1050.86 443.677 1050.64 443.158 1050.21 442.764C1049.78 442.363 1049.15 442.163 1048.32 442.163H1045.3V446.503H1048.32ZM1055.93 439.896H1058.51V448.812C1058.51 449.901 1058.82 450.692 1059.43 451.186C1060.05 451.68 1060.83 451.927 1061.79 451.927C1062.8 451.927 1063.6 451.666 1064.19 451.143C1064.79 450.613 1065.09 449.836 1065.09 448.812V439.896H1067.66V448.92C1067.66 450.08 1067.41 451.065 1066.9 451.874C1066.39 452.676 1065.69 453.281 1064.81 453.689C1063.92 454.09 1062.92 454.291 1061.79 454.291C1060.64 454.291 1059.63 454.087 1058.75 453.678C1057.87 453.263 1057.18 452.654 1056.67 451.852C1056.18 451.043 1055.93 450.066 1055.93 448.92V439.896ZM1082.18 439.896V454.001H1079.76L1073.27 444.344V454.001H1070.71V439.896H1073.14L1079.63 449.575V439.896H1082.18ZM1096.81 439.896V454.001H1094.39L1087.9 444.344V454.001H1085.34V439.896H1087.77L1094.26 449.575V439.896H1096.81ZM1101.59 439.896L1103.26 442.754C1103.67 443.47 1104.03 444.132 1104.35 444.741C1104.66 445.343 1104.86 445.722 1104.93 445.88C1105.01 445.715 1105.21 445.357 1105.51 444.805C1105.82 444.247 1106.2 443.563 1106.65 442.754L1108.32 439.896H1111.2L1106.21 448.35V454.001H1103.63V448.35L1098.61 439.896H1101.59ZM1061.75 468.896V483.001H1059.34L1052.85 473.344V483.001H1050.29V468.896H1052.72L1059.21 478.575V468.896H1061.75ZM1079.01 475.943C1079.01 477.361 1078.68 478.629 1078.04 479.746C1077.4 480.863 1076.5 481.733 1075.37 482.356C1074.23 482.979 1072.96 483.291 1071.55 483.291C1070.14 483.291 1068.87 482.983 1067.74 482.367C1066.61 481.751 1065.73 480.885 1065.1 479.767C1064.46 478.65 1064.14 477.383 1064.14 475.965C1064.14 474.539 1064.46 473.272 1065.1 472.162C1065.73 471.045 1066.61 470.175 1067.74 469.552C1068.87 468.928 1070.15 468.617 1071.57 468.617C1072.98 468.617 1074.25 468.928 1075.38 469.552C1076.51 470.175 1077.4 471.041 1078.04 472.151C1078.68 473.254 1079.01 474.518 1079.01 475.943ZM1076.28 475.943C1076.28 474.983 1076.08 474.131 1075.68 473.386C1075.28 472.642 1074.71 472.062 1073.99 471.646C1073.27 471.224 1072.47 471.012 1071.57 471.012C1070.66 471.012 1069.85 471.224 1069.12 471.646C1068.41 472.062 1067.85 472.642 1067.44 473.386C1067.03 474.131 1066.83 474.991 1066.83 475.965C1066.83 476.917 1067.03 477.769 1067.44 478.521C1067.85 479.266 1068.41 479.846 1069.12 480.261C1069.85 480.677 1070.66 480.885 1071.57 480.885C1072.47 480.885 1073.27 480.677 1073.99 480.261C1074.71 479.846 1075.28 479.266 1075.68 478.521C1076.08 477.769 1076.28 476.91 1076.28 475.943ZM1080.85 472.903C1080.85 472.037 1081.06 471.281 1081.48 470.636C1081.9 469.992 1082.49 469.494 1083.25 469.143C1084.02 468.792 1084.9 468.617 1085.89 468.617C1086.87 468.617 1087.75 468.789 1088.51 469.133C1089.28 469.476 1089.88 469.963 1090.31 470.594C1090.74 471.224 1090.95 471.958 1090.95 472.796H1088.3C1088.28 472.194 1088.04 471.711 1087.58 471.345C1087.12 470.973 1086.52 470.787 1085.76 470.787C1085.08 470.787 1084.52 470.959 1084.11 471.302C1083.7 471.639 1083.5 472.076 1083.5 472.613C1083.5 473.143 1083.68 473.533 1084.03 473.784C1084.4 474.035 1084.88 474.232 1085.48 474.375L1087.79 474.944C1088.85 475.195 1089.7 475.657 1090.35 476.33C1091 476.996 1091.33 477.855 1091.33 478.908C1091.33 479.789 1091.11 480.559 1090.66 481.218C1090.23 481.876 1089.6 482.388 1088.79 482.754C1087.99 483.112 1087.06 483.291 1085.99 483.291C1084.41 483.291 1083.12 482.908 1082.12 482.141C1081.13 481.368 1080.6 480.319 1080.51 478.994H1083.16C1083.19 479.653 1083.47 480.172 1083.99 480.552C1084.51 480.924 1085.19 481.11 1086.03 481.11C1086.84 481.11 1087.48 480.938 1087.93 480.594C1088.39 480.251 1088.62 479.778 1088.62 479.177C1088.62 478.661 1088.46 478.271 1088.14 478.006C1087.82 477.741 1087.39 477.544 1086.87 477.415L1084.51 476.845C1083.35 476.566 1082.45 476.101 1081.81 475.449C1081.17 474.79 1080.85 473.941 1080.85 472.903ZM1096.25 471.249V474.772H1102.04V477.017H1096.25V480.648H1102.69V483.001H1093.67V468.896H1102.69V471.249H1096.25Z" fill="#FF383D"/>
<path d="M1081.03 371.266C1129.8 371.266 1169.34 410.804 1169.34 459.579C1169.34 508.351 1129.8 547.889 1081.03 547.889V591.502" stroke="#FFD6D7" stroke-width="2.4" stroke-miterlimit="10"/>
<path d="M1073.77 593.705C1073.77 589.693 1077.02 586.443 1081.03 586.443C1085.04 586.443 1088.29 589.693 1088.29 593.705C1088.29 597.716 1085.04 600.967 1081.03 600.967C1077.02 600.967 1073.77 597.716 1073.77 593.705Z" fill="#F2AEB0"/>
<path opacity="0.15" d="M11.0007 730.367C11.0007 691.357 42.625 659.733 81.6348 659.733C120.645 659.733 152.266 691.357 152.266 730.367C152.266 769.377 120.645 801.001 81.6348 801.001C42.625 801.001 11.0007 769.377 11.0007 730.367Z" fill="#FF383D"/>
<g filter="url(#filter0_d_1_1152)">
<path d="M31.822 726.896C33.197 726.896 34.4216 727.197 35.4958 727.799C36.5772 728.4 37.4187 729.242 38.0203 730.323C38.6218 731.397 38.9226 732.618 38.9226 733.986C38.9226 735.347 38.6254 736.561 38.031 737.628C37.4366 738.688 36.5987 739.515 35.5173 740.109C34.4431 740.704 33.2113 741.001 31.822 741.001H26.5798V726.896H31.822ZM31.5964 738.648C32.5203 738.648 33.3295 738.455 34.0242 738.068C34.726 737.674 35.2667 737.126 35.6462 736.425C36.0258 735.723 36.2156 734.91 36.2156 733.986C36.2156 733.048 36.0258 732.224 35.6462 731.515C35.2667 730.799 34.726 730.244 34.0242 729.85C33.3295 729.449 32.5203 729.249 31.5964 729.249H29.158V738.648H31.5964ZM41.9412 726.896L43.6169 729.754C44.0251 730.47 44.3868 731.132 44.7019 731.741C45.017 732.343 45.2104 732.722 45.282 732.88C45.3679 732.715 45.5613 732.357 45.8621 731.805C46.17 731.247 46.5496 730.563 47.0007 729.754L48.6765 726.896H51.5554L46.5603 735.35V741.001H43.9822V735.35L38.9656 726.896H41.9412ZM59.1394 726.896C60.6218 726.896 61.7856 727.315 62.6306 728.153C63.4828 728.991 63.9089 730.112 63.9089 731.515C63.9089 732.425 63.7156 733.231 63.3289 733.932C62.9421 734.627 62.3835 735.171 61.6531 735.565C60.9298 735.959 60.0776 736.156 59.0964 736.156H55.9275V741.001H53.3494V726.896H59.1394ZM58.613 733.943C59.4796 733.943 60.1277 733.71 60.5574 733.245C60.9942 732.772 61.2126 732.181 61.2126 731.472C61.2126 730.828 60.9942 730.284 60.5574 729.84C60.1277 729.388 59.5011 729.163 58.6775 729.163H55.9275V733.943H58.613ZM65.6277 730.903C65.6277 730.037 65.8354 729.281 66.2507 728.636C66.6733 727.992 67.2641 727.494 68.0232 727.143C68.7895 726.792 69.6703 726.617 70.6658 726.617C71.6469 726.617 72.5206 726.789 73.2869 727.133C74.0531 727.476 74.6511 727.963 75.0808 728.594C75.5105 729.224 75.7253 729.958 75.7253 730.796H73.072C73.0577 730.194 72.8178 729.711 72.3523 729.345C71.894 728.973 71.2888 728.787 70.5369 728.787C69.8494 728.787 69.2979 728.959 68.8826 729.302C68.4744 729.639 68.2703 730.076 68.2703 730.613C68.2703 731.143 68.4493 731.533 68.8074 731.784C69.1726 732.035 69.656 732.232 70.2576 732.375L72.5671 732.944C73.6199 733.195 74.4721 733.657 75.1238 734.33C75.7755 734.996 76.1013 735.855 76.1013 736.908C76.1013 737.789 75.8793 738.559 75.4353 739.218C74.9985 739.876 74.3754 740.388 73.5662 740.754C72.7641 741.112 71.8295 741.291 70.7625 741.291C69.1798 741.291 67.8907 740.908 66.8953 740.141C65.907 739.368 65.3699 738.319 65.2839 736.994H67.9373C67.9659 737.653 68.2416 738.172 68.7644 738.552C69.2872 738.924 69.9675 739.11 70.8054 739.11C71.6147 739.11 72.2485 738.938 72.7068 738.594C73.1651 738.251 73.3943 737.778 73.3943 737.177C73.3943 736.661 73.2332 736.271 72.9109 736.006C72.5886 735.741 72.1661 735.544 71.6433 735.415L69.28 734.845C68.1199 734.566 67.2211 734.101 66.5837 733.449C65.9464 732.79 65.6277 731.941 65.6277 730.903ZM89.905 726.896V741.001H87.488L80.9998 731.344V741.001H78.4431V726.896H80.8708L87.3591 736.575V726.896H89.905ZM107.157 733.943C107.157 735.361 106.835 736.629 106.19 737.746C105.546 738.863 104.654 739.733 103.515 740.356C102.384 740.979 101.113 741.291 99.7019 741.291C98.2911 741.291 97.0199 740.983 95.8884 740.367C94.7641 739.751 93.8832 738.885 93.2458 737.767C92.6085 736.65 92.2898 735.383 92.2898 733.965C92.2898 732.539 92.6085 731.272 93.2458 730.162C93.8832 729.045 94.7641 728.175 95.8884 727.552C97.0199 726.928 98.2983 726.617 99.7234 726.617C101.134 726.617 102.402 726.928 103.526 727.552C104.658 728.175 105.546 729.041 106.19 730.151C106.835 731.254 107.157 732.518 107.157 733.943ZM104.428 733.943C104.428 732.983 104.228 732.131 103.827 731.386C103.426 730.642 102.864 730.062 102.14 729.646C101.424 729.224 100.619 729.012 99.7234 729.012C98.8139 729.012 97.9975 729.224 97.2742 729.646C96.558 730.062 95.9958 730.642 95.5876 731.386C95.1794 732.131 94.9753 732.991 94.9753 733.965C94.9753 734.917 95.1794 735.769 95.5876 736.521C95.9958 737.266 96.558 737.846 97.2742 738.261C97.9975 738.677 98.8139 738.885 99.7234 738.885C100.619 738.885 101.424 738.677 102.14 738.261C102.864 737.846 103.426 737.266 103.827 736.521C104.228 735.769 104.428 734.91 104.428 733.943ZM112.109 729.249V732.772H117.899V735.017H112.109V738.648H118.554V741.001H109.531V726.896H118.554V729.249H112.109ZM125.161 726.896H127.782L133.013 741.001H130.285L129.146 737.789H123.754L122.561 741.001H119.897L125.161 726.896ZM128.394 735.651L127.492 733.17C127.406 732.933 127.17 732.235 126.783 731.075L126.482 730.194C126.425 730.387 126.289 730.792 126.074 731.408C125.859 732.024 125.641 732.611 125.419 733.17L124.495 735.651H128.394Z" fill="#FF383D"/>
</g>
<path d="M81.3325 642.643C130.105 642.643 169.643 682.181 169.643 730.953C169.643 779.728 130.105 819.266 81.3325 819.266V862.877" stroke="#FFD6D7" stroke-width="2.4" stroke-miterlimit="10"/>
<path d="M74.0701 865.081C74.0701 861.069 77.3207 857.818 81.3323 857.818C85.344 857.818 88.5946 861.069 88.5946 865.081C88.5946 869.09 85.344 872.343 81.3323 872.343C77.3207 872.343 74.0701 869.09 74.0701 865.081Z" fill="#F2AEB0"/>
<path d="M186.74 742.834H365.033C374.666 742.834 383.365 737.075 387.127 728.208L443.54 595.234C447.302 586.366 456.002 580.607 465.634 580.607H672.809" stroke="#FFB2B1" stroke-width="5" stroke-linejoin="round"/>
<path d="M201.987 743.241C201.987 748.277 197.904 752.36 192.868 752.36C187.832 752.36 183.75 748.277 183.75 743.241C183.75 738.205 187.832 734.123 192.868 734.123C197.904 734.123 201.987 738.205 201.987 743.241Z" fill="#FF383D"/>
<path opacity="0.15" d="M159.268 488.367C159.268 449.357 127.644 417.733 88.6338 417.733C49.624 417.733 17.9998 449.357 17.9998 488.367C17.9998 527.376 49.624 559.001 88.6338 559.001C127.644 559.001 159.268 527.376 159.268 488.367Z" fill="#FF383D"/>
<path d="M58.2026 474.227H53.938V486.001H51.3599V474.227H47.0522V471.896H58.2026V474.227ZM60.1147 471.896H62.6929V477.751L68.9448 477.772V471.896H71.5337V486.001H68.9448V479.996H62.6929V486.001H60.1147V471.896ZM74.5737 471.896H80.1704C81.8892 471.896 83.1925 472.279 84.0806 473.046C84.9757 473.805 85.4233 474.89 85.4233 476.3C85.4233 477.282 85.1942 478.119 84.7358 478.814C84.2847 479.502 83.6473 479.999 82.8237 480.307L85.5093 486.001H82.6304L80.2563 480.748H77.1519V486.001H74.5737V471.896ZM80.1704 478.503C81.0083 478.503 81.6421 478.302 82.0718 477.901C82.5015 477.493 82.7163 476.966 82.7163 476.322C82.7163 475.677 82.4979 475.158 82.061 474.764C81.6313 474.363 81.0011 474.163 80.1704 474.163H77.1519V478.503H80.1704ZM101.87 478.943C101.87 480.361 101.547 481.629 100.903 482.746C100.258 483.863 99.3667 484.733 98.228 485.356C97.0965 485.979 95.8254 486.291 94.4146 486.291C93.0037 486.291 91.7326 485.983 90.6011 485.367C89.4767 484.751 88.5959 483.884 87.9585 482.767C87.3211 481.65 87.0024 480.383 87.0024 478.965C87.0024 477.539 87.3211 476.272 87.9585 475.162C88.5959 474.045 89.4767 473.174 90.6011 472.551C91.7326 471.928 93.0109 471.617 94.436 471.617C95.8468 471.617 97.1144 471.928 98.2388 472.551C99.3703 473.174 100.258 474.041 100.903 475.151C101.547 476.254 101.87 477.518 101.87 478.943ZM99.1411 478.943C99.1411 477.983 98.9406 477.131 98.5396 476.386C98.1385 475.642 97.5763 475.062 96.853 474.646C96.1369 474.224 95.3312 474.012 94.436 474.012C93.5265 474.012 92.7101 474.224 91.9868 474.646C91.2707 475.062 90.7085 475.642 90.3003 476.386C89.8921 477.131 89.688 477.991 89.688 478.965C89.688 479.917 89.8921 480.769 90.3003 481.521C90.7085 482.266 91.2707 482.846 91.9868 483.261C92.7101 483.677 93.5265 483.884 94.436 483.884C95.3312 483.884 96.1369 483.677 96.853 483.261C97.5763 482.846 98.1385 482.266 98.5396 481.521C98.9406 480.769 99.1411 479.91 99.1411 478.943ZM107.456 471.896H110.077L115.308 486.001H112.58L111.441 482.789H106.048L104.856 486.001H102.192L107.456 471.896ZM110.689 480.651L109.787 478.17C109.701 477.933 109.464 477.235 109.078 476.075L108.777 475.194C108.72 475.387 108.583 475.792 108.369 476.408C108.154 477.024 107.935 477.611 107.713 478.17L106.79 480.651H110.689ZM125.707 474.227H121.442V486.001H118.864V474.227H114.556V471.896H125.707V474.227ZM73.6821 500.896C75.1646 500.896 76.3283 501.315 77.1733 502.153C78.0256 502.991 78.4517 504.112 78.4517 505.515C78.4517 506.425 78.2583 507.23 77.8716 507.932C77.4849 508.627 76.9263 509.171 76.1958 509.565C75.4725 509.959 74.6203 510.156 73.6392 510.156H70.4702V515.001H67.8921V500.896H73.6821ZM73.1558 507.943C74.0223 507.943 74.6704 507.71 75.1001 507.245C75.5369 506.772 75.7554 506.181 75.7554 505.472C75.7554 504.828 75.5369 504.284 75.1001 503.84C74.6704 503.388 74.0438 503.163 73.2202 503.163H70.4702V507.943H73.1558ZM83.3716 500.896H85.9927L91.2241 515.001H88.4956L87.3569 511.789H81.9644L80.772 515.001H78.1079L83.3716 500.896ZM86.605 509.651L85.7026 507.17C85.6167 506.933 85.3804 506.235 84.9937 505.075L84.6929 504.194C84.6356 504.387 84.4995 504.792 84.2847 505.408C84.0698 506.024 83.8514 506.611 83.6294 507.17L82.7056 509.651H86.605ZM93.0288 515.001V500.896H95.6069V515.001H93.0288ZM110.098 500.896V515.001H107.681L101.193 505.343V515.001H98.6362V500.896H101.064L107.552 510.575V500.896H110.098Z" fill="#FF383D"/>
<path d="M89.9726 400.026C41.2003 400.026 1.6626 439.564 1.6626 488.339C1.6626 537.111 41.2003 576.649 89.9726 576.649V620.263" stroke="#FFD6D7" stroke-width="2.4" stroke-miterlimit="10"/>
<path d="M97.4327 622.545C97.4327 618.534 94.1821 615.283 90.1705 615.283C86.1615 615.283 82.9082 618.534 82.9082 622.545C82.9082 626.557 86.1615 629.808 90.1705 629.808C94.1821 629.808 97.4327 626.557 97.4327 622.545Z" fill="#F2AEB0"/>
<path d="M190.511 503.071H393.822C401.243 503.071 408.246 499.638 412.792 493.773L455.528 438.63C460.074 432.764 467.077 429.331 474.498 429.331H631.721" stroke="#FFB2B1" stroke-width="5" stroke-linejoin="round"/>
<path d="M200.761 503.587C200.761 508.623 196.678 512.705 191.642 512.705C186.606 512.705 182.524 508.623 182.524 503.587C182.524 498.551 186.606 494.468 191.642 494.468C196.678 494.468 200.761 498.551 200.761 503.587Z" fill="#FF383D"/>
<path opacity="0.13" d="M1160 700.367C1160 661.357 1128.38 629.733 1089.37 629.733C1050.36 629.733 1018.74 661.357 1018.74 700.367C1018.74 739.376 1050.36 771.001 1089.37 771.001C1128.38 771.001 1160 739.376 1160 700.367Z" fill="#FF383D"/>
<path d="M1045.72 683.903C1045.72 683.036 1045.92 682.281 1046.34 681.636C1046.76 680.992 1047.35 680.494 1048.11 680.143C1048.88 679.792 1049.76 679.617 1050.75 679.617C1051.74 679.617 1052.61 679.789 1053.38 680.132C1054.14 680.476 1054.74 680.963 1055.17 681.593C1055.6 682.224 1055.81 682.958 1055.81 683.796H1053.16C1053.15 683.194 1052.91 682.711 1052.44 682.345C1051.98 681.973 1051.38 681.787 1050.63 681.787C1049.94 681.787 1049.39 681.959 1048.97 682.302C1048.56 682.639 1048.36 683.076 1048.36 683.613C1048.36 684.143 1048.54 684.533 1048.9 684.784C1049.26 685.034 1049.74 685.231 1050.35 685.375L1052.66 685.944C1053.71 686.195 1054.56 686.657 1055.21 687.33C1055.86 687.996 1056.19 688.855 1056.19 689.908C1056.19 690.789 1055.97 691.559 1055.52 692.217C1055.09 692.876 1054.46 693.388 1053.65 693.754C1052.85 694.112 1051.92 694.291 1050.85 694.291C1049.27 694.291 1047.98 693.908 1046.98 693.141C1046 692.368 1045.46 691.319 1045.37 689.994H1048.03C1048.05 690.653 1048.33 691.172 1048.85 691.551C1049.38 691.924 1050.06 692.11 1050.89 692.11C1051.7 692.11 1052.34 691.938 1052.8 691.594C1053.25 691.251 1053.48 690.778 1053.48 690.176C1053.48 689.661 1053.32 689.27 1053 689.005C1052.68 688.741 1052.25 688.544 1051.73 688.415L1049.37 687.845C1048.21 687.566 1047.31 687.101 1046.67 686.449C1046.03 685.79 1045.72 684.941 1045.72 683.903ZM1058.53 679.896H1061.11V685.751L1067.36 685.772V679.896H1069.95V694.001H1067.36V687.996H1061.11V694.001H1058.53V679.896ZM1076.87 679.896H1079.49L1084.72 694.001H1081.99L1080.85 690.789H1075.46L1074.27 694.001H1071.6L1076.87 679.896ZM1080.1 688.651L1079.2 686.17C1079.11 685.933 1078.88 685.235 1078.49 684.075L1078.19 683.194C1078.13 683.387 1078 683.792 1077.78 684.408C1077.57 685.024 1077.35 685.611 1077.13 686.17L1076.2 688.651H1080.1ZM1093.22 685.965L1098.08 694.001H1094.98L1091.46 688.146L1089.13 691.036V694.044H1086.53V679.896H1089.13V687.072L1094.89 679.896H1098.11L1093.22 685.965ZM1099.95 694.001V679.896H1102.53V694.001H1099.95ZM1117.02 679.896V694.001H1114.61L1108.12 684.343V694.001H1105.56V679.896H1107.99L1114.48 689.575V679.896H1117.02ZM1133.62 686.341V687.684C1133.62 688.988 1133.32 690.141 1132.72 691.143C1132.12 692.139 1131.28 692.912 1130.2 693.464C1129.14 694.015 1127.92 694.291 1126.55 694.291C1125.13 694.291 1123.88 693.99 1122.8 693.388C1121.73 692.787 1120.89 691.942 1120.3 690.853C1119.7 689.757 1119.41 688.49 1119.41 687.05C1119.41 685.582 1119.71 684.29 1120.32 683.172C1120.93 682.048 1121.78 681.174 1122.88 680.551C1123.98 679.928 1125.24 679.617 1126.67 679.617C1127.82 679.617 1128.85 679.817 1129.78 680.218C1130.72 680.619 1131.5 681.185 1132.12 681.916C1132.73 682.639 1133.14 683.47 1133.33 684.408H1130.58C1130.3 683.649 1129.81 683.058 1129.1 682.635C1128.39 682.206 1127.55 681.991 1126.59 681.991C1125.2 681.991 1124.09 682.449 1123.29 683.366C1122.48 684.283 1122.07 685.496 1122.07 687.007C1122.07 688.519 1122.48 689.711 1123.3 690.585C1124.12 691.451 1125.23 691.884 1126.62 691.884C1127.78 691.884 1128.74 691.594 1129.49 691.014C1130.26 690.427 1130.72 689.603 1130.87 688.544H1126.4V686.341H1133.62ZM1062.97 723.291C1061.56 723.291 1060.3 722.986 1059.2 722.378C1058.1 721.769 1057.25 720.906 1056.63 719.789C1056.01 718.672 1055.71 717.39 1055.71 715.943C1055.71 714.504 1056.01 713.229 1056.62 712.119C1057.23 711.002 1058.08 710.139 1059.18 709.53C1060.28 708.921 1061.54 708.617 1062.97 708.617C1064.14 708.617 1065.22 708.817 1066.19 709.218C1067.16 709.619 1067.97 710.2 1068.61 710.959C1069.25 711.711 1069.65 712.584 1069.83 713.58H1066.96C1066.74 712.821 1066.27 712.201 1065.55 711.721C1064.82 711.234 1063.96 710.991 1062.95 710.991C1062.04 710.991 1061.24 711.195 1060.54 711.603C1059.85 712.011 1059.32 712.595 1058.95 713.354C1058.58 714.106 1058.39 714.976 1058.39 715.964C1058.39 716.96 1058.58 717.834 1058.96 718.586C1059.34 719.33 1059.87 719.9 1060.56 720.294C1061.26 720.687 1062.05 720.884 1062.95 720.884C1063.93 720.884 1064.78 720.648 1065.51 720.175C1066.25 719.696 1066.74 719.062 1066.96 718.274H1069.83C1069.67 719.255 1069.27 720.129 1068.64 720.895C1068.01 721.654 1067.21 722.245 1066.23 722.668C1065.26 723.083 1064.17 723.291 1062.97 723.291ZM1072.17 708.896H1074.75V714.751L1081 714.772V708.896H1083.59V723.001H1081V716.996H1074.75V723.001H1072.17V708.896ZM1086.63 723.001V708.896H1089.21V723.001H1086.63ZM1100.67 720.67V723.001H1092.24V708.896H1094.84V720.67H1100.67ZM1111.18 720.67V723.001H1102.75V708.896H1105.35V720.67H1111.18ZM1112.85 712.903C1112.85 712.036 1113.06 711.281 1113.48 710.636C1113.9 709.992 1114.49 709.494 1115.25 709.143C1116.02 708.792 1116.9 708.617 1117.89 708.617C1118.87 708.617 1119.75 708.789 1120.51 709.132C1121.28 709.476 1121.88 709.963 1122.31 710.593C1122.74 711.224 1122.95 711.958 1122.95 712.796H1120.3C1120.28 712.194 1120.05 711.711 1119.58 711.345C1119.12 710.973 1118.52 710.787 1117.76 710.787C1117.08 710.787 1116.53 710.959 1116.11 711.302C1115.7 711.639 1115.5 712.076 1115.5 712.613C1115.5 713.143 1115.68 713.533 1116.03 713.784C1116.4 714.034 1116.88 714.231 1117.48 714.375L1119.79 714.944C1120.85 715.195 1121.7 715.657 1122.35 716.33C1123 716.996 1123.33 717.855 1123.33 718.908C1123.33 719.789 1123.11 720.559 1122.66 721.217C1122.23 721.876 1121.6 722.388 1120.79 722.754C1119.99 723.112 1119.06 723.291 1117.99 723.291C1116.41 723.291 1115.12 722.908 1114.12 722.141C1113.13 721.368 1112.6 720.319 1112.51 718.994H1115.16C1115.19 719.653 1115.47 720.172 1115.99 720.551C1116.51 720.924 1117.19 721.11 1118.03 721.11C1118.84 721.11 1119.48 720.938 1119.93 720.594C1120.39 720.251 1120.62 719.778 1120.62 719.176C1120.62 718.661 1120.46 718.27 1120.14 718.005C1119.82 717.741 1119.39 717.544 1118.87 717.415L1116.51 716.845C1115.35 716.566 1114.45 716.101 1113.81 715.449C1113.17 714.79 1112.85 713.941 1112.85 712.903Z" fill="#FA5652"/>
<path d="M1089.87 613.802C1041.1 613.802 1001.56 653.34 1001.56 702.112C1001.56 750.887 1041.1 790.425 1089.87 790.425V834.036" stroke="#FFD6D7" stroke-width="2.4" stroke-miterlimit="10"/>
<path d="M1097.13 836.239C1097.13 832.228 1093.88 828.977 1089.86 828.977C1085.85 828.977 1082.6 832.228 1082.6 836.239C1082.6 840.248 1085.85 843.502 1089.86 843.502C1093.88 843.502 1097.13 840.248 1097.13 836.239Z" fill="#F2AEB0"/>
<path d="M725.738 754.401H816.846C824.124 754.401 831.009 751.099 835.565 745.422L861.096 713.606C865.651 707.93 872.536 704.627 879.814 704.627H973.995" stroke="#FFA6A6" stroke-width="5" stroke-linejoin="round"/>
<path d="M979.943 703.913C979.943 708.949 975.861 713.032 970.825 713.032C965.789 713.032 961.706 708.949 961.706 703.913C961.706 698.877 965.789 694.795 970.825 694.795C975.861 694.795 979.943 698.877 979.943 703.913Z" fill="#FF383D"/>
<path opacity="0.15" d="M1160 214.367C1160 175.357 1128.38 143.733 1089.37 143.733C1050.36 143.733 1018.74 175.357 1018.74 214.367C1018.74 253.376 1050.36 285.001 1089.37 285.001C1128.38 285.001 1160 253.376 1160 214.367Z" fill="#FF383D"/>
<path d="M1036.58 210.896H1039.16V216.751L1045.41 216.772V210.896H1048V225.001H1045.41V218.996H1039.16V225.001H1036.58V210.896ZM1053.62 213.249V216.772H1059.41V219.017H1053.62V222.648H1060.06V225.001H1051.04V210.896H1060.06V213.249H1053.62ZM1066.67 210.896H1069.29L1074.52 225.001H1071.79L1070.65 221.789H1065.26L1064.07 225.001H1061.41L1066.67 210.896ZM1069.9 219.651L1069 217.17C1068.91 216.933 1068.68 216.235 1068.29 215.075L1067.99 214.194C1067.93 214.387 1067.8 214.792 1067.58 215.408C1067.37 216.024 1067.15 216.611 1066.93 217.17L1066 219.651H1069.9ZM1081.57 210.896C1082.94 210.896 1084.17 211.197 1085.24 211.799C1086.32 212.4 1087.17 213.242 1087.77 214.323C1088.37 215.397 1088.67 216.618 1088.67 217.986C1088.67 219.347 1088.37 220.561 1087.78 221.628C1087.18 222.688 1086.35 223.515 1085.26 224.109C1084.19 224.704 1082.96 225.001 1081.57 225.001H1076.33V210.896H1081.57ZM1081.34 222.648C1082.27 222.648 1083.08 222.455 1083.77 222.068C1084.47 221.674 1085.01 221.126 1085.39 220.425C1085.77 219.723 1085.96 218.91 1085.96 217.986C1085.96 217.048 1085.77 216.224 1085.39 215.515C1085.01 214.799 1084.47 214.244 1083.77 213.85C1083.08 213.449 1082.27 213.249 1081.34 213.249H1078.9V222.648H1081.34ZM1094.26 210.896H1096.88L1102.11 225.001H1099.38L1098.24 221.789H1092.85L1091.66 225.001H1088.99L1094.26 210.896ZM1097.49 219.651L1096.59 217.17C1096.5 216.933 1096.26 216.235 1095.88 215.075L1095.58 214.194C1095.52 214.387 1095.38 214.792 1095.17 215.408C1094.95 216.024 1094.73 216.611 1094.51 217.17L1093.59 219.651H1097.49ZM1109.72 225.291C1108.31 225.291 1107.06 224.986 1105.95 224.378C1104.86 223.769 1104 222.906 1103.39 221.789C1102.77 220.672 1102.46 219.39 1102.46 217.943C1102.46 216.504 1102.77 215.229 1103.38 214.119C1103.98 213.002 1104.84 212.139 1105.93 211.53C1107.03 210.921 1108.3 210.617 1109.72 210.617C1110.9 210.617 1111.97 210.817 1112.95 211.219C1113.92 211.62 1114.73 212.2 1115.36 212.959C1116 213.711 1116.41 214.584 1116.59 215.58H1113.72C1113.5 214.821 1113.03 214.201 1112.3 213.721C1111.58 213.234 1110.71 212.991 1109.7 212.991C1108.79 212.991 1107.99 213.195 1107.3 213.603C1106.61 214.011 1106.08 214.595 1105.71 215.354C1105.33 216.106 1105.15 216.976 1105.15 217.965C1105.15 218.96 1105.34 219.834 1105.72 220.586C1106.1 221.33 1106.63 221.9 1107.32 222.294C1108.01 222.688 1108.81 222.885 1109.7 222.885C1110.68 222.885 1111.54 222.648 1112.27 222.176C1113.01 221.696 1113.49 221.062 1113.72 220.274H1116.59C1116.42 221.255 1116.03 222.129 1115.4 222.895C1114.77 223.654 1113.96 224.245 1112.99 224.668C1112.02 225.083 1110.93 225.291 1109.72 225.291ZM1118.93 210.896H1121.51V216.751L1127.76 216.772V210.896H1130.35V225.001H1127.76V218.996H1121.51V225.001H1118.93V210.896ZM1135.97 213.249V216.772H1141.76V219.017H1135.97V222.648H1142.41V225.001H1133.39V210.896H1142.41V213.249H1135.97Z" fill="#FF383D"/>
<path d="M1089.87 127.65C1041.1 127.65 1001.56 167.188 1001.56 215.96C1001.56 264.733 1041.1 304.273 1089.87 304.273V347.884" stroke="#FFD6D7" stroke-width="2.4" stroke-miterlimit="10"/>
<path d="M1097.13 350.088C1097.13 346.076 1093.88 342.825 1089.87 342.825C1085.86 342.825 1082.61 346.076 1082.61 350.088C1082.61 354.099 1085.86 357.35 1089.87 357.35C1093.88 357.35 1097.13 354.099 1097.13 350.088Z" fill="#F2AEB0"/>
<path d="M975.839 222.86H849.559C843.442 222.86 837.555 225.196 833.102 229.391L804.567 256.272C800.114 260.466 794.228 262.802 788.11 262.802H674.12" stroke="#FFB2B1" stroke-width="5" stroke-linejoin="round"/>
<path d="M979.941 222.146C979.941 227.182 975.859 231.265 970.822 231.265C965.786 231.265 961.704 227.182 961.704 222.146C961.704 217.11 965.786 213.028 970.822 213.028C975.859 213.028 979.941 217.11 979.941 222.146Z" fill="#FF383D"/>
<defs>
<filter id="filter0_d_1_1152" x="26.5798" y="726.617" width="106.434" height="14.6738" filterUnits="userSpaceOnUse" color-interpolation-filters="sRGB">
<feFlood flood-opacity="0" result="BackgroundImageFix"/>
<feColorMatrix in="SourceAlpha" type="matrix" values="0 0 0 0 0 0 0 0 0 0 0 0 0 0 0 0 0 0 127 0" result="hardAlpha"/>
<feOffset/>
<feColorMatrix type="matrix" values="0 0 0 0 0 0 0 0 0 0 0 0 0 0 0 0 0 0 0.1 0"/>
<feBlend mode="normal" in2="BackgroundImageFix" result="effect1_dropShadow_1_1152"/>
<feBlend mode="normal" in="SourceGraphic" in2="effect1_dropShadow_1_1152" result="shape"/>
</filter>
<linearGradient id="paint0_linear_1_1152" x1="279.615" y1="651.803" x2="343.866" y2="780.176" gradientUnits="userSpaceOnUse">
<stop stop-color="#FFC8C8"/>
<stop offset="1" stop-color="#FFF2F5"/>
</linearGradient>
<linearGradient id="paint1_linear_1_1152" x1="911.18" y1="248.5" x2="389.511" y2="38.2379" gradientUnits="userSpaceOnUse">
<stop stop-color="white"/>
<stop offset="1" stop-color="#FFD5D5"/>
</linearGradient>
<linearGradient id="paint2_linear_1_1152" x1="843.946" y1="153.536" x2="682.873" y2="126.968" gradientUnits="userSpaceOnUse">
<stop stop-color="#FFD3D3"/>
<stop offset="1" stop-color="#FFF6F6"/>
</linearGradient>
<linearGradient id="paint3_linear_1_1152" x1="205.431" y1="428.026" x2="962.765" y2="428.026" gradientUnits="userSpaceOnUse">
<stop stop-color="#FFF8F5"/>
<stop offset="1" stop-color="#FFDEDE"/>
</linearGradient>
<linearGradient id="paint4_linear_1_1152" x1="893.009" y1="609.535" x2="694.623" y2="627.819" gradientUnits="userSpaceOnUse">
<stop stop-color="#FFC2C2"/>
<stop offset="1" stop-color="white"/>
</linearGradient>
</defs>
</svg>
